SplineFontDB: 3.2
FontName: Khaanaa-Black
FullName: Khaanaa Black
FamilyName: Khaanaa
Weight: Black
Copyright: Copyright 2024 The Khaanaa Font Authors
UComments: "2024-7-22: Created with FontForge (http://fontforge.org)"
Version: 0.001
ItalicAngle: 0
UnderlinePosition: -102
UnderlineWidth: 51
Ascent: 819
Descent: 205
InvalidEm: 0
UFOAscent: 819
UFODescent: -205
LayerCount: 2
Layer: 0 0 "Back" 1
Layer: 1 1 "public.default" 0 "glyphs"
StyleMap: 0x0040
FSType: 0
OS2Version: 0
OS2_WeightWidthSlopeOnly: 0
OS2_UseTypoMetrics: 0
CreationTime: 1732813800
ModificationTime: 1733033603
PfmFamily: 16
TTFWeight: 400
TTFWidth: 5
LineGap: 0
VLineGap: 0
OS2TypoAscent: 839
OS2TypoAOffset: 0
OS2TypoDescent: -210
OS2TypoDOffset: 0
OS2TypoLinegap: 0
OS2WinAscent: 839
OS2WinAOffset: 0
OS2WinDescent: 210
OS2WinDOffset: 0
HheadAscent: 839
HheadAOffset: 0
HheadDescent: -210
HheadDOffset: 0
OS2FamilyClass: 1283
OS2Vendor: 'anir'
MarkAttachClasses: 1
DEI: 91125
LangName: 1033 "" "" "" "" "" "Version 0.001" "" "" "" "" "" "" "" "Copyright 2024, The Khaanaa Font Authors+AAoA-This Font Software is licensed under the SIL Open Font License, Version 1.1.+AAoA-This license is available with a FAQ at:https://openfontlicense.org" "https://openfontlicense.org"
Encoding: Custom
UnicodeInterp: none
NameList: AGL For New Fonts
DisplaySize: -128
AntiAlias: 1
FitToEm: 0
WinInfo: 100 10 4
BeginPrivate: 0
EndPrivate
GridOrder2: 1
Grid
-512 296.96 m 1,0,-1
 1536 296.96 l 1025
-512 581.632 m 1,2,-1
 1536 581.632 l 1025
EndSplineSet
BeginChars: 65537 96

StartChar: A
Encoding: 65 65 0
GlifName: A_
Width: 752
VWidth: 0
GlyphClass: 2
Flags: W
LayerCount: 2
Fore
SplineSet
555 0 m 257,0,-1
 466 228 l 257,1,-1
 466 227 l 257,2,-1
 266 227 l 257,3,-1
 207 0 l 257,4,-1
 55 0 l 257,5,-1
 255 769 l 257,6,-1
 407 769 l 257,7,-1
 707 0 l 257,8,-1
 555 0 l 257,0,-1
412 367 m 257,9,-1
 346 535 l 257,10,-1
 302 367 l 257,11,-1
 412 367 l 257,9,-1
EndSplineSet
EndChar

StartChar: exclam
Encoding: 33 33 1
GlifName: exclam
Width: 252
VWidth: 0
GlyphClass: 2
Flags: W
LayerCount: 2
Fore
SplineSet
55 258 m 257,0,-1
 55 772 l 257,1,-1
 207 772 l 257,2,-1
 207 258 l 257,3,-1
 55 258 l 257,0,-1
55 -2 m 257,4,-1
 55 140 l 257,5,-1
 207 140 l 257,6,-1
 207 -2 l 257,7,-1
 55 -2 l 257,4,-1
EndSplineSet
EndChar

StartChar: quotedbl
Encoding: 34 34 2
GlifName: quotedbl
Width: 452
VWidth: 0
GlyphClass: 2
Flags: W
LayerCount: 2
Fore
SplineSet
255 532 m 261,0,-1
 255 789 l 257,1,-1
 407 789 l 257,2,-1
 407 532 l 257,3,-1
 255 532 l 261,0,-1
55 532 m 257,4,-1
 55 789 l 257,5,-1
 207 789 l 257,6,-1
 207 532 l 257,7,-1
 55 532 l 257,4,-1
EndSplineSet
EndChar

StartChar: quotesingle
Encoding: 39 39 3
GlifName: quotesingle
Width: 252
VWidth: 0
GlyphClass: 2
Flags: W
LayerCount: 2
Fore
SplineSet
55 532 m 261,0,-1
 55 789 l 257,1,-1
 207 789 l 257,2,-1
 207 532 l 257,3,-1
 55 532 l 261,0,-1
EndSplineSet
EndChar

StartChar: namaste
Encoding: 65536 -1 4
Width: 1024
Flags: W
LayerCount: 2
Fore
SplineSet
453.450671619 804.459225092 m 2,0,-1
 295.620603981 434.110616888 l 1,1,2
 273.27992777 384.730849026 273.27992777 384.730849026 273.279927857 322.839266883 c 0,3,4
 273.279927857 295.1228536 273.279927857 295.1228536 279.479854885 262.021933209 c 0,5,6
 290.962990424 200.714380138 290.962990424 200.714380138 311.052628048 152.776432249 c 1,7,-1
 311.129882812 152.390625 l 1,8,-1
 121.383643381 -5.36297062052 l 2,9,10
 113.319139529 -12.0470345719 113.319139529 -12.0470345719 113.319140608 -21.4584887518 c 128,-1,11
 113.319141687 -30.8699429316 113.319141687 -30.8699429316 118.859365998 -37.1857725317 c 2,12,-1
 258.616020538 -196.419940797 l 2,13,14
 265.26946747 -203.997070312 265.26946747 -203.997070312 275.345703125 -203.997070312 c 0,15,16
 286.821380026 -203.997070312 286.821380026 -203.997070312 293.475964056 -194.654179307 c 2,17,-1
 491.742663825 83.6086538605 l 2,18,19
 495.866909225 89.4019676504 495.866909225 89.4019676504 495.87265988 96.5184031166 c 2,20,-1
 496.18945323 795.738743222 l 2,21,22
 496 804 496 804 491.079050409 809.978165795 c 0,23,24
 484.305077037 818.207458772 484.305077037 818.207458772 471.807609326 818.207458772 c 128,-1,25
 459.310141616 818.207458772 459.310141616 818.207458772 453.450671619 804.459225092 c 2,0,-1
120.108544119 -3.82257625448 m 2,26,-1
 308.921654356 152.687776936 l 1,27,28
 299.372777941 175.588298647 299.372777941 175.588298647 291.552758078 202.019640238 c 128,-1,29
 283.732738215 228.450981828 283.732738215 228.450981828 277.506333036 261.693266973 c 128,-1,30
 271.279927857 294.935552119 271.279927857 294.935552119 271.279927857 316.320146283 c 128,-1,31
 271.279927857 337.704740448 271.279927857 337.704740448 272.67689168 353.02507352 c 0,32,33
 276.69891077 397.139298501 276.69891077 397.139298501 293.779786643 434.893289362 c 2,34,-1
 451.609875257 805.241946784 l 2,35,36
 457.98814686 820.207458772 457.98814686 820.207458772 472.274435658 820.207458772 c 0,37,38
 485.268761689 820.207458772 485.268761689 820.207458772 492.724210431 811.076017425 c 0,39,40
 498.189454046 804.382181381 498.189454046 804.382181381 498.189454046 795.745223687 c 2,41,-1
 497.872659453 96.516755254 l 2,42,43
 497.866393068 88.7621025554 497.866393068 88.7621025554 493.372570551 82.4499398895 c 2,44,-1
 295.106067194 -195.812617569 l 2,45,46
 287.852070218 -205.99707129 287.852070218 -205.99707129 276.108295678 -205.997070801 c 128,-1,47
 264.364521138 -205.997070312 264.364521138 -205.997070312 257.112495086 -197.738262327 c 2,48,-1
 117.355477752 -38.5036805933 l 2,49,50
 111.319141687 -31.6222859323 111.319141687 -31.6222859323 111.319141687 -21.3648701719 c 128,-1,51
 111.319141687 -11.1074544115 111.319141687 -11.1074544115 120.108544119 -3.82257625448 c 2,26,-1
712.944463173 152.776482143 m 1,52,53
 733.036967279 200.717066044 733.036967279 200.717066044 744.519451068 262.021854219 c 0,54,55
 750.718980138 295.121035843 750.718980138 295.121035843 750.718980138 316.363885995 c 128,-1,56
 750.718980138 337.606736146 750.718980138 337.606736146 749.330037404 352.841060576 c 0,57,58
 745.337951448 396.622187895 745.337951448 396.622187895 728.385278504 434.09055493 c 2,59,-1
 570.545412512 804.45924766 l 2,60,61
 564.691002156 818.208001617 564.691002156 818.208001617 551.72590528 818.208001617 c 0,62,63
 539.676388691 818.208001617 539.676388691 818.208001617 533.740538095 810.936765897 c 128,-1,64
 527.8046875 803.665530176 527.8046875 803.665530176 527.8046875 795.731445312 c 2,65,-1
 528.120455286 96.5121098625 l 2,66,67
 528.126205464 89.3948281485 528.126205464 89.3948281485 532.25056862 83.6017219383 c 2,68,-1
 730.51807604 -194.659897567 l 2,69,70
 737.176129473 -204.002929688 737.176129473 -204.002929688 747.95302903 -204.002929688 c 128,-1,71
 758.729928586 -204.002929688 758.729928586 -204.002929688 765.378058336 -196.426847097 c 2,72,-1
 905.133975141 -37.1914300946 l 2,73,74
 910.680795184 -30.870665513 910.680795184 -30.870665513 910.680795184 -22.7283062752 c 0,75,76
 910.680795184 -12.0404691901 910.680795184 -12.0404691901 902.616769726 -5.36331286546 c 2,77,-1
 713.229643758 151.620422936 l 1,78,-1
 712.944463173 152.776482143 l 1,52,53
728.88817396 -195.818618057 m 2,79,-1
 530.62052513 82.4431999367 l 2,80,81
 526.126721948 88.7549356722 526.126721948 88.7549356722 526.12045542 96.511329707 c 2,82,-1
 525.8046875 795.731445312 l 2,83,84
 525.8046875 804.377715996 525.8046875 804.377715996 531.272070711 811.075093475 c 0,85,86
 538.727691779 820.208001617 538.727691779 820.208001617 552.370578154 820.208001617 c 128,-1,87
 566.013464528 820.208001617 566.013464528 820.208001617 572.386228112 805.241924216 c 2,88,-1
 730.208471496 434.91335132 l 1,89,90
 752.718270893 385.162764583 752.718270893 385.162764583 752.718980138 322.835693853 c 0,91,92
 752.718980138 294.933736491 752.718980138 294.933736491 746.492971674 261.693181829 c 0,93,94
 735.045940713 200.57767571 735.045940713 200.57767571 715.075450276 152.687755804 c 1,95,-1
 903.891042774 -3.82223400954 l 2,96,97
 912.679583677 -11.0993019921 912.679583677 -11.0993019921 912.680189431 -21.361270844 c 128,-1,98
 912.680795184 -31.623239696 912.680795184 -31.623239696 906.637509235 -38.5097417804 c 2,99,-1
 766.881707288 -197.745027903 l 2,100,101
 759.635270642 -206.002929688 759.635270642 -206.002929688 747.890506305 -206.002929688 c 128,-1,102
 736.145741968 -206.002929688 736.145741968 -206.002929688 728.88817396 -195.818618057 c 2,79,-1
308.921654356 152.687776936 m 1,103,-1
 309.492333181 153.160822183 l 1,104,-1
 308.921654356 152.687776936 l 1,103,-1
EndSplineSet
EndChar

StartChar: numbersign
Encoding: 35 35 6
Width: 644
VWidth: 0
Flags: W
LayerCount: 2
Fore
SplineSet
149 692 m 1,0,-1
 301 692 l 1,1,-1
 287.917127072 618 l 1,2,-1
 435.917127072 618 l 1,3,-1
 449 692 l 1,4,-1
 601 692 l 1,5,-1
 587.917127072 618 l 1,6,-1
 599 618 l 1,7,-1
 599 466 l 1,8,-1
 561.044198895 466 l 1,9,-1
 543.718232044 368 l 1,10,-1
 599 368 l 1,11,-1
 599 216 l 1,12,-1
 516.845303867 216 l 1,13,-1
 505 149 l 1,14,-1
 353 149 l 1,15,-1
 364.845303867 216 l 1,16,-1
 216.845303867 216 l 1,17,-1
 205 149 l 1,18,-1
 53 149 l 1,19,-1
 64.8453038674 216 l 1,20,-1
 55 216 l 1,21,-1
 55 368 l 1,22,-1
 91.7182320442 368 l 1,23,-1
 109.044198895 466 l 1,24,-1
 55 466 l 1,25,-1
 55 618 l 1,26,-1
 135.917127072 618 l 1,27,-1
 149 692 l 1,0,-1
409.044198895 466 m 1,28,-1
 261.044198895 466 l 1,29,-1
 243.718232044 368 l 1,30,-1
 391.718232044 368 l 1,31,-1
 409.044198895 466 l 1,28,-1
EndSplineSet
EndChar

StartChar: dollar
Encoding: 36 36 7
Width: 512
VWidth: 0
Flags: W
LayerCount: 2
Fore
SplineSet
60 57 m 1,0,-1
 135 182 l 1,1,2
 143 176 143 176 157 167 c 0,3,4
 195 145 195 145 238 155 c 0,5,6
 245.868314854 156.829840664 245.868314854 156.829840664 253 159.563726878 c 1,7,-1
 253 309.608321509 l 1,8,9
 243.11843193 313.190022709 243.11843193 313.190022709 232 315 c 0,10,11
 183 342 183 342 147 375 c 128,-1,12
 111 408 111 408 90 449 c 128,-1,13
 69 490 69 490 72 539 c 128,-1,14
 75 588 75 588 106 639 c 0,15,16
 157.27940251 723.244732695 157.27940251 723.244732695 253 758.017191734 c 1,17,-1
 253 1030 l 1,18,-1
 332 1030 l 1,19,-1
 332 774.489432646 l 1,20,21
 402.770999209 776.564487889 402.770999209 776.564487889 458 727 c 0,22,23
 461 724 461 724 468.5 719.5 c 128,-1,24
 476 715 476 715 479 712 c 1,25,-1
 404 587 l 1,26,27
 392 597 392 597 382 602 c 0,28,29
 357.904652355 615.315850014 357.904652355 615.315850014 332 615.966567057 c 1,30,-1
 332 400.544512926 l 1,31,32
 361.041994523 383.132943792 361.041994523 383.132943792 383 365.5 c 0,33,34
 416 339 416 339 440.5 304 c 128,-1,35
 465 269 465 269 463.5 225 c 128,-1,36
 462 181 462 181 432 130 c 0,37,38
 397 71 397 71 332.5 32.5 c 0,39,40
 332.250015021 32.35078416 332.250015021 32.35078416 332 32.2021391306 c 2,41,-1
 332 -182 l 1,42,-1
 253 -182 l 1,43,-1
 253 -0.345529008978 l 1,44,45
 227.401709779 -6.30525030241 227.401709779 -6.30525030241 201.5 -6.5 c 0,46,47
 135 -7 135 -7 81 42 c 0,48,49
 78 45 78 45 70.5 49.5 c 128,-1,50
 63 54 63 54 60 57 c 1,0,-1
253 585.786987628 m 1,51,52
 243.970902505 576.723790576 243.970902505 576.723790576 237 565 c 0,53,54
 212 524 212 524 232.5 475 c 0,55,56
 240.602177193 455.633820369 240.602177193 455.633820369 253 442.672057836 c 1,57,-1
 253 585.786987628 l 1,51,52
EndSplineSet
EndChar

StartChar: percent
Encoding: 37 37 8
Width: 691
VWidth: 0
Flags: W
LayerCount: 2
Fore
SplineSet
209 483 m 261,0,-1
 207 483 l 257,1,-1
 200 483 l 257,2,3
 149 487 149 487 114.5 523.5 c 128,-1,4
 80 560 80 560 80 611 c 128,-1,5
 80 662 80 662 115 699 c 128,-1,6
 150 736 150 736 200 740 c 1,7,-1
 207 740 l 257,8,-1
 209 740 l 257,9,-1
 211 740 l 258,10,11
 265 740 265 740 302.5 702.5 c 128,-1,12
 340 665 340 665 340 611 c 0,13,14
 340 558 340 558 302.5 520.5 c 128,-1,15
 265 483 265 483 211 483 c 2,16,-1
 209 483 l 261,0,-1
210 665 m 260,17,18
 206 665 206 665 198 663 c 1,19,-1
 198 664 l 257,20,21
 179 660 179 660 167.5 645.5 c 128,-1,22
 156 631 156 631 156 611 c 0,23,24
 156 592 156 592 167.5 577.5 c 128,-1,25
 179 563 179 563 198 559 c 1,26,-1
 198 560 l 257,27,28
 206 558 206 558 210 558 c 128,-1,29
 214 558 214 558 222 560 c 1,30,-1
 222 559 l 257,31,32
 241 563 241 563 252.5 577.5 c 128,-1,33
 264 592 264 592 264 611 c 0,34,35
 264 631 264 631 252.5 645.5 c 128,-1,36
 241 660 241 660 222 664 c 1,37,-1
 222 663 l 257,38,39
 214 665 214 665 210 665 c 260,17,18
514 82 m 257,40,-1
 512 82 l 257,41,-1
 505 82 l 257,42,43
 454 86 454 86 419.5 122.5 c 128,-1,44
 385 159 385 159 385 210 c 128,-1,45
 385 261 385 261 420 298 c 128,-1,46
 455 335 455 335 505 339 c 1,47,-1
 512 339 l 257,48,-1
 514 339 l 257,49,-1
 516 339 l 258,50,51
 570 339 570 339 607.5 301.5 c 128,-1,52
 645 264 645 264 645 210 c 0,53,54
 645 157 645 157 607.5 119.5 c 128,-1,55
 570 82 570 82 516 82 c 2,56,-1
 514 82 l 257,40,-1
515 264 m 256,57,58
 511 264 511 264 503 262 c 1,59,-1
 503 263 l 257,60,61
 484 259 484 259 472.5 244.5 c 128,-1,62
 461 230 461 230 461 210 c 0,63,64
 461 191 461 191 472.5 176.5 c 128,-1,65
 484 162 484 162 503 158 c 1,66,-1
 503 159 l 257,67,68
 511 157 511 157 515 157 c 128,-1,69
 519 157 519 157 527 159 c 1,70,-1
 527 158 l 257,71,72
 546 162 546 162 557.5 176.5 c 128,-1,73
 569 191 569 191 569 210 c 0,74,75
 569 230 569 230 557.5 244.5 c 128,-1,76
 546 259 546 259 527 263 c 1,77,-1
 527 262 l 257,78,79
 519 264 519 264 515 264 c 256,57,58
540 818 m 257,80,-1
 646 757 l 257,81,-1
 161 -83 l 257,82,-1
 55 -22 l 257,83,-1
 540 818 l 257,80,-1
EndSplineSet
EndChar

StartChar: ampersand
Encoding: 38 38 9
Width: 649
VWidth: 0
Flags: W
LayerCount: 2
Fore
SplineSet
394 810 m 1,0,-1
 391 691 l 1,1,2
 373 690 373 690 308.5 655 c 128,-1,3
 244 620 244 620 229 605 c 0,4,5
 195 571 195 571 198 521 c 1,6,-1
 221 498 l 1,7,8
 268 518 268 518 320 518 c 0,9,10
 333 518 333 518 346 517 c 1,11,-1
 346 373 l 1,12,-1
 457 262 l 1,13,14
 570 354 570 354 574 355 c 1,15,-1
 574 202 l 2,16,17
 571 202 571 202 541 178 c 1,18,-1
 605 114 l 1,19,-1
 487 -4 l 1,20,-1
 411 73 l 1,21,22
 324 3 324 3 320 3 c 0,23,24
 213 3 213 3 137.5 78 c 128,-1,25
 62 153 62 153 62 260 c 0,26,27
 62 330 62 330 97 390 c 1,28,-1
 81 406 l 1,29,30
 61 442 61 442 56 480 c 128,-1,31
 51 518 51 518 61 558.5 c 128,-1,32
 71 599 71 599 84.5 633 c 128,-1,33
 98 667 98 667 122 712 c 0,34,35
 135 736 135 736 195.5 764 c 128,-1,36
 256 792 256 792 317 806 c 128,-1,37
 378 820 378 820 394 810 c 1,0,-1
327 158 m 1,38,-1
 214 272 l 1,39,40
 213 266 213 266 213 260 c 0,41,42
 213 216 213 216 244 185 c 128,-1,43
 275 154 275 154 320 154 c 0,44,45
 321 154 321 154 327 158 c 1,38,-1
EndSplineSet
EndChar

StartChar: parenleft
Encoding: 40 40 10
Width: 555
VWidth: 0
Flags: W
LayerCount: 2
Fore
SplineSet
437 744 m 257,0,1
 337 744 337 744 248 633.5 c 128,-1,2
 159 523 159 523 159 378 c 0,3,4
 159 232 159 232 248 121.5 c 128,-1,5
 337 11 337 11 437 11 c 1,6,-1
 510 -7 l 257,7,8
 476 -14 476 -14 437 -14 c 0,9,10
 279 -14 279 -14 167 101.5 c 128,-1,11
 55 217 55 217 55 380 c 128,-1,12
 55 543 55 543 167 658 c 128,-1,13
 279 773 279 773 437 773 c 0,14,15
 476 773 476 773 510 766 c 1,16,-1
 437 744 l 257,0,1
EndSplineSet
EndChar

StartChar: parenright
Encoding: 41 41 11
Width: 555
VWidth: 0
Flags: W
LayerCount: 2
Fore
SplineSet
128 744 m 261,0,-1
 55 766 l 257,1,2
 89 773 89 773 128 773 c 0,3,4
 286 773 286 773 398 658 c 128,-1,5
 510 543 510 543 510 380 c 128,-1,6
 510 217 510 217 398 101.5 c 128,-1,7
 286 -14 286 -14 128 -14 c 0,8,9
 89 -14 89 -14 55 -7 c 1,10,-1
 128 11 l 257,11,12
 228 11 228 11 317 121.5 c 128,-1,13
 406 232 406 232 406 378 c 0,14,15
 406 523 406 523 317 633.5 c 128,-1,16
 228 744 228 744 128 744 c 261,0,-1
EndSplineSet
EndChar

StartChar: asterisk
Encoding: 42 42 12
Width: 644
VWidth: 0
Flags: W
LayerCount: 2
Fore
SplineSet
599 496 m 1,0,-1
 599 344 l 1,1,-1
 510 344 l 1,2,-1
 573 281 l 1,3,-1
 466 174 l 1,4,-1
 403 237 l 1,5,-1
 403 149 l 1,6,-1
 251 149 l 1,7,-1
 251 237 l 1,8,-1
 188 174 l 1,9,-1
 81 281 l 1,10,-1
 144 344 l 1,11,-1
 55 344 l 1,12,-1
 55 496 l 1,13,-1
 144 496 l 1,14,-1
 81 559 l 1,15,-1
 188 666 l 1,16,-1
 251 603 l 1,17,-1
 251 692 l 1,18,-1
 403 692 l 1,19,-1
 403 603 l 1,20,-1
 466 666 l 1,21,-1
 573 559 l 1,22,-1
 510 496 l 1,23,-1
 599 496 l 1,0,-1
EndSplineSet
EndChar

StartChar: plus
Encoding: 43 43 13
Width: 644
VWidth: 0
Flags: W
LayerCount: 2
Fore
SplineSet
599 496 m 261,0,-1
 599 344 l 257,1,-1
 55 344 l 257,2,-1
 55 496 l 257,3,-1
 599 496 l 261,0,-1
251 692 m 261,4,-1
 403 692 l 257,5,-1
 403 149 l 257,6,-1
 251 149 l 257,7,-1
 251 692 l 261,4,-1
EndSplineSet
EndChar

StartChar: comma
Encoding: 44 44 14
Width: 252
VWidth: 0
Flags: W
LayerCount: 2
Fore
SplineSet
55 -2 m 5,0,-1
 55 140 l 1,1,-1
 207 140 l 1,2,-1
 207 -2 l 1,3,-1
 147 -134 l 1,4,-1
 89 -130 l 1,5,-1
 98 -2 l 1,6,-1
 55 -2 l 5,0,-1
EndSplineSet
EndChar

StartChar: hyphen
Encoding: 45 45 15
Width: 644
VWidth: 0
Flags: W
LayerCount: 2
Fore
SplineSet
599 496 m 261,0,-1
 599 344 l 257,1,-1
 55 344 l 257,2,-1
 55 496 l 257,3,-1
 599 496 l 261,0,-1
EndSplineSet
EndChar

StartChar: period
Encoding: 46 46 16
Width: 252
VWidth: 0
Flags: W
LayerCount: 2
Fore
SplineSet
55 -2 m 257,0,-1
 55 140 l 257,1,-1
 207 140 l 257,2,-1
 207 -2 l 257,3,-1
 55 -2 l 257,0,-1
EndSplineSet
EndChar

StartChar: slash
Encoding: 47 47 17
Width: 691
VWidth: 0
Flags: W
LayerCount: 2
Fore
SplineSet
540 818 m 257,0,-1
 646 757 l 257,1,-1
 161 -83 l 257,2,-1
 55 -22 l 257,3,-1
 540 818 l 257,0,-1
EndSplineSet
EndChar

StartChar: zero
Encoding: 48 48 18
Width: 864
VWidth: 0
Flags: W
LayerCount: 2
Fore
SplineSet
742 380 m 256,0,1
 742 273 742 273 701.5 182 c 128,-1,2
 661 91 661 91 591 38.5 c 128,-1,3
 521 -14 521 -14 437.5 -14 c 128,-1,4
 354 -14 354 -14 283.5 38.5 c 128,-1,5
 213 91 213 91 172.5 182 c 128,-1,6
 132 273 132 273 132 380 c 0,7,8
 132 487 132 487 172.5 577.5 c 128,-1,9
 213 668 213 668 283.5 720.5 c 128,-1,10
 354 773 354 773 437.5 773 c 128,-1,11
 521 773 521 773 591 720.5 c 128,-1,12
 661 668 661 668 701.5 577.5 c 128,-1,13
 742 487 742 487 742 380 c 256,0,1
620 378 m 256,14,15
 620 475 620 475 567 543.5 c 128,-1,16
 514 612 514 612 437.5 612 c 128,-1,17
 361 612 361 612 307.5 543.5 c 128,-1,18
 254 475 254 475 254 378 c 0,19,20
 254 280 254 280 307.5 211.5 c 128,-1,21
 361 143 361 143 437.5 143 c 128,-1,22
 514 143 514 143 567 211.5 c 128,-1,23
 620 280 620 280 620 378 c 256,14,15
EndSplineSet
EndChar

StartChar: one
Encoding: 49 49 19
Width: 252
VWidth: 0
Flags: W
LayerCount: 2
Fore
SplineSet
55 774 m 257,0,-1
 207 774 l 257,1,-1
 207 -2 l 257,2,-1
 55 -2 l 257,3,-1
 55 774 l 257,0,-1
EndSplineSet
EndChar

StartChar: two
Encoding: 50 50 20
Width: 555
VWidth: 0
Flags: W
LayerCount: 2
Fore
SplineSet
135 586 m 4,0,1
 230 586 230 586 297 531 c 128,-1,2
 364 476 364 476 364 399 c 0,3,4
 364 322 364 322 298 274 c 128,-1,5
 232 226 232 226 135 226 c 0,6,7
 97 226 97 226 62 236 c 1,8,-1
 59 0 l 1,9,-1
 562 5 l 1,10,-1
 562 126 l 1,11,-1
 287 124 l 1,12,13
 391 158 391 158 454 231.5 c 128,-1,14
 517 305 517 305 517 400 c 0,15,16
 517 485 517 485 466 558 c 128,-1,17
 415 631 415 631 327 673 c 128,-1,18
 239 715 239 715 135 715 c 0,19,20
 98 715 98 715 62 709 c 1,21,-1
 62 576 l 1,22,23
 97 586 97 586 135 586 c 4,0,1
EndSplineSet
EndChar

StartChar: three
Encoding: 51 51 21
Width: 435
VWidth: 0
Flags: W
LayerCount: 2
Fore
SplineSet
55 -5 m 5,0,-1
 55 119 l 1,1,2
 68 116 68 116 81 116 c 0,3,4
 147 116 147 116 193 141 c 128,-1,5
 239 166 239 166 239 202 c 0,6,7
 239 236 239 236 212 260 c 128,-1,8
 185 284 185 284 145 288 c 0,9,10
 139 288 139 288 132.5 288 c 128,-1,11
 126 288 126 288 120 288 c 0,12,13
 113 287 113 287 106 286 c 1,14,-1
 106 289 l 1,15,-1
 106 410 l 1,16,-1
 106 413 l 1,17,18
 113 412 113 412 120 411 c 0,19,20
 126 411 126 411 132 411 c 128,-1,21
 138 411 138 411 145 411 c 0,22,23
 186 415 186 415 212.5 439 c 128,-1,24
 239 463 239 463 239 496 c 0,25,26
 239 532 239 532 195 557.5 c 128,-1,27
 151 583 151 583 87 583 c 0,28,29
 74 583 74 583 61 580 c 1,30,-1
 61 704 l 1,31,32
 74 705 74 705 87 705 c 0,33,34
 213 705 213 705 301.5 644 c 128,-1,35
 390 583 390 583 390 496 c 0,36,37
 390 410 390 410 315 349 c 1,38,39
 390 288 390 288 390 202 c 128,-1,40
 390 116 390 116 299.5 55 c 128,-1,41
 209 -6 209 -6 81 -6 c 0,42,43
 68 -6 68 -6 55 -5 c 5,0,-1
EndSplineSet
EndChar

StartChar: four
Encoding: 52 52 22
Width: 752
VWidth: 0
Flags: W
LayerCount: 2
Fore
SplineSet
399 0 m 257,0,-1
 399 192 l 257,1,-1
 398 191 l 257,2,-1
 63 191 l 257,3,-1
 385 774 l 257,4,-1
 528 774 l 257,5,-1
 528 0 l 257,6,-1
 399 0 l 257,0,-1
391 341 m 257,7,-1
 391 521 l 257,8,-1
 293 344 l 257,9,-1
 391 341 l 257,7,-1
EndSplineSet
EndChar

StartChar: five
Encoding: 53 53 23
Width: 384
VWidth: 0
Flags: W
LayerCount: 2
Fore
SplineSet
55 4 m 1,0,-1
 55 157 l 1,1,2
 67 154 67 154 81 154 c 0,3,4
 126 154 126 154 157 185 c 128,-1,5
 188 216 188 216 188 260 c 0,6,7
 188 305 188 305 157 336 c 128,-1,8
 126 367 126 367 81 367 c 0,9,10
 67 367 67 367 55 364 c 1,11,-1
 55 397 l 1,12,-1
 55 517 l 1,13,-1
 55 773 l 1,14,-1
 56 773 l 1,15,-1
 56 774 l 1,16,-1
 373 774 l 1,17,-1
 372 622 l 1,18,-1
 207 622 l 1,19,-1
 207 485 l 1,20,21
 267 451 267 451 303 391.5 c 128,-1,22
 339 332 339 332 339 260 c 0,23,24
 339 153 339 153 263.5 78 c 128,-1,25
 188 3 188 3 81 3 c 0,26,27
 64 3 64 3 55 4 c 1,0,-1
EndSplineSet
EndChar

StartChar: six
Encoding: 54 54 24
Width: 729
VWidth: 0
Flags: W
LayerCount: 2
Fore
SplineSet
437 612 m 0,0,1
 352 612 352 612 288 556 c 128,-1,2
 224 500 224 500 211 416 c 1,3,4
 281 493 281 493 384 499 c 0,5,6
 392 500 392 500 398 500 c 0,7,8
 400 500 400 500 402 500 c 0,9,10
 403 500 l 0,11,12
 404 500 404 500 406 500 c 0,13,14
 497 500 497 500 567.5 443.5 c 128,-1,15
 638 387 638 387 658 300 c 0,16,17
 664 272 664 272 664 242 c 0,18,19
 664 202 664 202 652 164 c 0,20,21
 622 70 622 70 536 20 c 1,22,23
 487 -14 487 -14 437 -14 c 0,24,25
 433 -14 433 -14 430 -14 c 0,26,27
 418 -15 418 -15 406 -15 c 0,28,29
 405 -15 405 -15 404 -15 c 0,30,-1
 403 -15 l 0,31,32
 402 -15 l 0,33,34
 400 -15 400 -15 398 -15 c 0,35,36
 389 -15 389 -15 384 -14 c 0,37,38
 304 -7 304 -7 242 41 c 1,39,40
 156 93 156 93 105.5 183 c 128,-1,41
 55 273 55 273 55 380 c 0,42,43
 55 543 55 543 167 658 c 128,-1,44
 279 773 279 773 437 773 c 0,45,46
 520 773 520 773 556 766 c 1,47,-1
 556 600 l 1,48,49
 541 605 541 605 501 608.5 c 128,-1,50
 461 612 461 612 437 612 c 0,0,1
388 367 m 0,51,52
 377 367 377 367 364 364 c 1,53,-1
 364 365 l 1,54,55
 327 358 327 358 303 328.5 c 128,-1,56
 279 299 279 299 279 260 c 0,57,58
 279 206 279 206 323 174 c 0,59,60
 339 165 339 165 355 158 c 0,61,62
 359 157 359 157 364 156 c 1,63,-1
 364 157 l 1,64,65
 375 154 375 154 388 154 c 0,66,67
 400 154 400 154 412 157 c 1,68,-1
 412 156 l 1,69,70
 449 163 449 163 473 192.5 c 128,-1,71
 497 222 497 222 497 260 c 0,72,73
 497 299 497 299 473 328 c 128,-1,74
 449 357 449 357 412 365 c 1,75,-1
 412 364 l 1,76,77
 400 367 400 367 388 367 c 0,51,52
EndSplineSet
EndChar

StartChar: seven
Encoding: 55 55 25
Width: 610
VWidth: 0
Flags: W
LayerCount: 2
Fore
SplineSet
218 0 m 257,0,-1
 56 0 l 257,1,-1
 394 610 l 257,2,-1
 55 610 l 257,3,-1
 55 762 l 257,4,-1
 565 762 l 257,5,-1
 565 610 l 257,6,-1
 218 0 l 257,0,-1
EndSplineSet
EndChar

StartChar: eight
Encoding: 56 56 26
Width: 616
VWidth: 0
Flags: W
LayerCount: 2
Fore
SplineSet
315 367 m 256,0,1
 302 367 302 367 291 364 c 1,2,-1
 291 365 l 257,3,4
 254 358 254 358 230 328.5 c 128,-1,5
 206 299 206 299 206 260 c 0,6,7
 206 222 206 222 230 193 c 128,-1,8
 254 164 254 164 291 156 c 1,9,-1
 291 157 l 257,10,11
 302 154 302 154 315 154 c 0,12,13
 327 154 327 154 339 157 c 1,14,-1
 339 156 l 257,15,16
 376 163 376 163 400 192.5 c 128,-1,17
 424 222 424 222 424 260 c 0,18,19
 424 299 424 299 400 328 c 128,-1,20
 376 357 376 357 339 365 c 1,21,-1
 339 364 l 257,22,23
 327 367 327 367 315 367 c 256,0,1
315 672 m 256,24,25
 302 672 302 672 291 669 c 1,26,-1
 291 670 l 257,27,28
 254 663 254 663 230 633.5 c 128,-1,29
 206 604 206 604 206 565 c 0,30,31
 206 527 206 527 230 498 c 128,-1,32
 254 469 254 469 291 461 c 1,33,-1
 291 462 l 257,34,35
 302 459 302 459 315 459 c 0,36,37
 327 459 327 459 339 462 c 1,38,-1
 339 461 l 257,39,40
 376 468 376 468 400 497.5 c 128,-1,41
 424 527 424 527 424 565 c 0,42,43
 424 604 424 604 400 633 c 128,-1,44
 376 662 376 662 339 670 c 1,45,-1
 339 669 l 257,46,47
 327 672 327 672 315 672 c 256,24,25
314 3 m 0,48,49
 313 3 l 0,50,51
 311 3 311 3 309 3 c 0,52,53
 301 3 301 3 295 4 c 0,54,55
 194 11 194 11 124.5 84.5 c 128,-1,56
 55 158 55 158 55 260 c 0,57,58
 55 345 55 345 105 413 c 1,59,60
 55 481 55 481 55 565 c 0,61,62
 55 667 55 667 124.5 741.5 c 128,-1,63
 194 816 194 816 295 822 c 0,64,65
 301 823 301 823 309 823 c 0,66,67
 311 823 311 823 313 823 c 0,68,69
 314 823 l 0,70,71
 315 823 315 823 317 823 c 0,72,73
 424 823 424 823 499.5 747.5 c 128,-1,74
 575 672 575 672 575 565 c 0,75,76
 575 481 575 481 525 413 c 1,77,78
 575 345 575 345 575 260 c 0,79,80
 575 153 575 153 499.5 78 c 128,-1,81
 424 3 424 3 317 3 c 0,82,83
 316 3 316 3 315.5 3 c 128,-1,84
 315 3 315 3 314 3 c 0,48,49
EndSplineSet
EndChar

StartChar: nine
Encoding: 57 57 27
Width: 729
VWidth: 0
Flags: W
LayerCount: 2
Fore
SplineSet
282 146 m 0,0,1
 367 146 367 146 431 202 c 128,-1,2
 495 258 495 258 508 342 c 1,3,4
 438 265 438 265 335 259 c 0,5,6
 327 258 327 258 321 258 c 0,7,8
 319 258 319 258 317 258 c 0,9,10
 316 258 l 0,11,12
 315 258 315 258 313 258 c 0,13,14
 222 258 222 258 151.5 314.5 c 128,-1,15
 81 371 81 371 61 458 c 0,16,17
 55 486 55 486 55 516 c 0,18,19
 55 556 55 556 67 594 c 0,20,21
 97 688 97 688 183 738 c 1,22,23
 232 772 232 772 282 772 c 0,24,25
 286 772 286 772 289 772 c 0,26,27
 301 773 301 773 313 773 c 0,28,29
 314 773 314 773 315 773 c 0,30,-1
 316 773 l 0,31,32
 317 773 l 0,33,34
 319 773 319 773 321 773 c 0,35,36
 330 773 330 773 335 772 c 0,37,38
 415 765 415 765 477 717 c 1,39,40
 563 665 563 665 613.5 575 c 128,-1,41
 664 485 664 485 664 378 c 0,42,43
 664 215 664 215 552 100 c 128,-1,44
 440 -15 440 -15 282 -15 c 0,45,46
 199 -15 199 -15 163 -8 c 1,47,-1
 163 158 l 1,48,49
 178 153 178 153 218 149.5 c 128,-1,50
 258 146 258 146 282 146 c 0,0,1
331 391 m 0,51,52
 342 391 342 391 355 394 c 1,53,-1
 355 393 l 1,54,55
 392 400 392 400 416 429.5 c 128,-1,56
 440 459 440 459 440 498 c 0,57,58
 440 552 440 552 396 584 c 0,59,60
 380 593 380 593 364 600 c 0,61,62
 360 601 360 601 355 602 c 1,63,-1
 355 601 l 1,64,65
 344 604 344 604 331 604 c 0,66,67
 319 604 319 604 307 601 c 1,68,-1
 307 602 l 1,69,70
 270 595 270 595 246 565.5 c 128,-1,71
 222 536 222 536 222 498 c 0,72,73
 222 459 222 459 246 430 c 128,-1,74
 270 401 270 401 307 393 c 1,75,-1
 307 394 l 1,76,77
 319 391 319 391 331 391 c 0,51,52
EndSplineSet
EndChar

StartChar: colon
Encoding: 58 58 28
Width: 252
VWidth: 0
Flags: W
LayerCount: 2
Fore
SplineSet
55 398 m 261,0,-1
 55 540 l 257,1,-1
 207 540 l 257,2,-1
 207 398 l 257,3,-1
 55 398 l 261,0,-1
55 -2 m 257,4,-1
 55 140 l 257,5,-1
 207 140 l 257,6,-1
 207 -2 l 257,7,-1
 55 -2 l 257,4,-1
EndSplineSet
EndChar

StartChar: semicolon
Encoding: 59 59 29
Width: 252
VWidth: 0
Flags: W
LayerCount: 2
Fore
SplineSet
55 -2 m 5,0,-1
 55 140 l 1,1,-1
 207 140 l 1,2,-1
 207 -2 l 1,3,-1
 147 -134 l 1,4,-1
 89 -130 l 1,5,-1
 98 -2 l 1,6,-1
 55 -2 l 5,0,-1
55 398 m 257,7,-1
 55 540 l 257,8,-1
 207 540 l 257,9,-1
 207 398 l 257,10,-1
 55 398 l 257,7,-1
EndSplineSet
EndChar

StartChar: less
Encoding: 60 60 30
Width: 644
VWidth: 0
Flags: W
LayerCount: 2
Fore
SplineSet
599 546 m 5,0,-1
 599 394 l 1,1,-1
 385 338 l 1,2,-1
 599 296 l 1,3,-1
 599 144 l 1,4,-1
 55 250 l 1,5,-1
 55 251 l 1,6,-1
 55 402 l 1,7,-1
 55 403 l 1,8,-1
 599 546 l 5,0,-1
EndSplineSet
EndChar

StartChar: equal
Encoding: 61 61 31
Width: 644
VWidth: 0
Flags: W
LayerCount: 2
Fore
SplineSet
599 296 m 261,0,-1
 599 144 l 257,1,-1
 55 144 l 257,2,-1
 55 296 l 257,3,-1
 599 296 l 261,0,-1
599 546 m 257,4,-1
 599 394 l 257,5,-1
 55 394 l 257,6,-1
 55 546 l 257,7,-1
 599 546 l 257,4,-1
EndSplineSet
EndChar

StartChar: greater
Encoding: 62 62 32
Width: 644
VWidth: 0
Flags: W
LayerCount: 2
Fore
SplineSet
55 546 m 5,0,-1
 599 403 l 1,1,-1
 599 402 l 1,2,-1
 599 251 l 1,3,-1
 599 250 l 1,4,-1
 55 144 l 1,5,-1
 55 296 l 1,6,-1
 269 338 l 1,7,-1
 55 394 l 1,8,-1
 55 546 l 5,0,-1
EndSplineSet
EndChar

StartChar: question
Encoding: 63 63 33
Width: 384
VWidth: 0
Flags: W
LayerCount: 2
Fore
SplineSet
55 -2 m 257,0,-1
 55 140 l 257,1,-1
 207 140 l 257,2,-1
 207 -2 l 257,3,-1
 55 -2 l 257,0,-1
55 828 m 1,4,5
 64 829 64 829 81 829 c 0,6,7
 188 829 188 829 263.5 754 c 128,-1,8
 339 679 339 679 339 572 c 0,9,10
 339 500 339 500 303 440 c 128,-1,11
 267 380 267 380 207 347 c 1,12,-1
 207 230 l 1,13,-1
 55 230 l 1,14,-1
 55 315 l 1,15,-1
 55 440 l 1,16,-1
 55 468 l 1,17,18
 67 465 67 465 81 465 c 0,19,20
 126 465 126 465 157 496 c 128,-1,21
 188 527 188 527 188 572 c 0,22,23
 188 616 188 616 157 647 c 128,-1,24
 126 678 126 678 81 678 c 0,25,26
 67 678 67 678 55 675 c 1,27,-1
 55 828 l 1,4,5
EndSplineSet
EndChar

StartChar: .notdef
Encoding: 64 -1 34
Width: 864
VWidth: 0
Flags: W
LayerCount: 2
Fore
SplineSet
529 166 m 1025,0,-1
490 420 m 257,1,2
 486 421 486 421 478 421 c 0,3,4
 455 421 455 421 439.5 405.5 c 128,-1,5
 424 390 424 390 424 368 c 128,-1,6
 424 346 424 346 439.5 330 c 128,-1,7
 455 314 455 314 478 314 c 0,8,9
 482 314 482 314 490 316 c 1,10,-1
 490 420 l 257,1,2
566 236 m 1025,11,-1
492 228 m 1,12,-1
 478 239 l 1,13,14
 424 239 424 239 386 276.5 c 128,-1,15
 348 314 348 314 348 368 c 0,16,17
 348 421 348 421 386 456.5 c 128,-1,18
 424 492 424 492 478 492 c 2,19,-1
 490 492 l 1,20,-1
 566 492 l 1,21,-1
 573 318 l 2,22,23
 575 306 575 306 588.5 292 c 128,-1,24
 602 278 602 278 618.5 270.5 c 128,-1,25
 635 263 635 263 649.5 276 c 128,-1,26
 664 289 664 289 667 326 c 0,27,28
 667 327 667 327 665 334 c 128,-1,29
 663 341 663 341 663 342 c 0,30,31
 672 396 672 396 656 448.5 c 128,-1,32
 640 501 640 501 600 541 c 0,33,34
 532 608 532 608 436.5 606.5 c 128,-1,35
 341 605 341 605 273 537 c 0,36,37
 204 468 204 468 203 372.5 c 128,-1,38
 202 277 202 277 269 209 c 0,39,40
 321 157 321 157 393 146 c 128,-1,41
 465 135 465 135 529 166 c 0,42,43
 540 171 540 171 568 143 c 0,44,45
 596 114 596 114 619 84 c 2,46,-1
 642 54 l 1,47,48
 529 -22 529 -22 392 -10.5 c 128,-1,49
 255 1 255 1 158 98 c 0,50,51
 46 210 46 210 48.5 371 c 128,-1,52
 51 532 51 532 166 647 c 128,-1,53
 281 762 281 762 441.5 764.5 c 128,-1,54
 602 767 602 767 714 655 c 0,55,56
 798 571 798 571 819 448 c 128,-1,57
 840 325 840 325 792 220 c 1,58,59
 770 207 770 207 748 199 c 128,-1,60
 726 191 726 191 701.5 189.5 c 128,-1,61
 677 188 677 188 660 187.5 c 128,-1,62
 643 187 643 187 616 193.5 c 128,-1,63
 589 200 589 200 576.5 203 c 128,-1,64
 564 206 564 206 532.5 215.5 c 128,-1,65
 501 225 501 225 492 228 c 1,12,-1
EndSplineSet
EndChar

StartChar: B
Encoding: 66 66 35
Width: 512
VWidth: 0
Flags: W
LayerCount: 2
Fore
SplineSet
207 780 m 258,0,1
 213 780 213 780 225 780 c 0,2,3
 332 780 332 780 407.5 704.5 c 128,-1,4
 483 629 483 629 483 522 c 0,5,6
 483 499 483 499 469 477 c 128,-1,7
 455 455 455 455 430.5 429 c 128,-1,8
 406 403 406 403 400 396 c 0,9,10
 402 394 402 394 432.5 362 c 128,-1,11
 463 330 463 330 476 307.5 c 128,-1,12
 489 285 489 285 489 260 c 0,13,14
 489 153 489 153 413.5 78 c 128,-1,15
 338 3 338 3 231 3 c 0,16,17
 215 3 215 3 207 4 c 2,18,-1
 55 4 l 257,19,-1
 55 780 l 257,20,-1
 207 780 l 258,0,1
207 136 m 257,21,22
 219 133 219 133 231 133 c 256,23,24
 276 133 276 133 307 164 c 128,-1,25
 338 195 338 195 338 239 c 0,26,27
 338 284 338 284 307 315 c 128,-1,28
 276 346 276 346 231 346 c 0,29,30
 219 346 219 346 207 343 c 257,31,-1
 207 136 l 257,21,22
207 454 m 257,32,33
 219 451 219 451 231 451 c 256,34,35
 276 451 276 451 307 482 c 128,-1,36
 338 513 338 513 338 557 c 0,37,38
 338 602 338 602 307 633 c 128,-1,39
 276 664 276 664 231 664 c 0,40,41
 219 664 219 664 207 661 c 257,42,-1
 207 454 l 257,32,33
EndSplineSet
EndChar

StartChar: C
Encoding: 67 67 36
Width: 555
VWidth: 0
Flags: W
LayerCount: 2
Fore
SplineSet
437 612 m 260,0,1
 342 612 342 612 275 543.5 c 128,-1,2
 208 475 208 475 208 378 c 0,3,4
 208 280 208 280 275 211.5 c 128,-1,5
 342 143 342 143 437 143 c 0,6,7
 475 143 475 143 510 155 c 1,8,-1
 510 -7 l 257,9,10
 474 -14 474 -14 437 -14 c 0,11,12
 279 -14 279 -14 167 101.5 c 128,-1,13
 55 217 55 217 55 380 c 128,-1,14
 55 543 55 543 167 658 c 128,-1,15
 279 773 279 773 437 773 c 0,16,17
 474 773 474 773 510 766 c 1,18,-1
 510 600 l 257,19,20
 475 612 475 612 437 612 c 260,0,1
EndSplineSet
EndChar

StartChar: D
Encoding: 68 68 37
Width: 630
VWidth: 0
Flags: W
LayerCount: 2
Fore
SplineSet
55 768 m 257,0,1
 70 763 70 763 129 768 c 128,-1,2
 188 773 188 773 203 773 c 0,3,4
 361 773 361 773 473 658 c 128,-1,5
 585 543 585 543 585 380 c 0,6,7
 585 273 585 273 534.5 183 c 128,-1,8
 484 93 484 93 397 40 c 128,-1,9
 310 -13 310 -13 207 -14 c 0,10,-1
 55 -14 l 257,11,-1
 55 768 l 257,0,1
207 143 m 257,12,13
 301 145 301 145 366.5 213.5 c 128,-1,14
 432 282 432 282 432 378 c 0,15,16
 432 474 432 474 366.5 542 c 128,-1,17
 301 610 301 610 207 612 c 1,18,-1
 207 143 l 257,12,13
EndSplineSet
EndChar

StartChar: E
Encoding: 69 69 38
Width: 668
VWidth: 0
Flags: W
LayerCount: 2
Fore
SplineSet
514 485 m 257,0,-1
 515 333 l 257,1,-1
 207 333 l 257,2,-1
 207 149 l 257,3,-1
 622 149 l 257,4,-1
 623 -3 l 257,5,-1
 56 -3 l 257,6,-1
 56 -2 l 257,7,-1
 55 -2 l 257,8,-1
 55 774 l 257,9,-1
 55 778 l 257,10,-1
 622 778 l 257,11,-1
 623 626 l 257,12,-1
 207 626 l 257,13,-1
 207 485 l 257,14,-1
 514 485 l 257,0,-1
EndSplineSet
EndChar

StartChar: F
Encoding: 70 70 39
Width: 668
VWidth: 0
Flags: W
LayerCount: 2
Fore
SplineSet
514 485 m 257,0,-1
 515 333 l 257,1,-1
 207 333 l 257,2,-1
 207 -2 l 257,3,-1
 55 -2 l 257,4,-1
 55 774 l 257,5,-1
 55 778 l 257,6,-1
 622 778 l 257,7,-1
 623 626 l 257,8,-1
 207 626 l 257,9,-1
 207 485 l 257,10,-1
 514 485 l 257,0,-1
EndSplineSet
EndChar

StartChar: G
Encoding: 71 71 40
Width: 651
VWidth: 0
Flags: W
LayerCount: 2
Fore
SplineSet
437 612 m 256,0,1
 342 612 342 612 275 543.5 c 128,-1,2
 208 475 208 475 208 378 c 0,3,4
 208 280 208 280 275 211.5 c 128,-1,5
 342 143 342 143 437 143 c 0,6,7
 446 143 446 143 454 144 c 1,8,-1
 454 313 l 257,9,-1
 606 313 l 257,10,-1
 606 -14 l 257,11,-1
 454 -14 l 258,12,13
 446 -14 446 -14 437 -14 c 0,14,15
 279 -14 279 -14 167 101.5 c 128,-1,16
 55 217 55 217 55 380 c 128,-1,17
 55 543 55 543 167 658 c 128,-1,18
 279 773 279 773 437 773 c 0,19,20
 474 773 474 773 510 766 c 1,21,-1
 510 600 l 257,22,23
 475 612 475 612 437 612 c 256,0,1
EndSplineSet
EndChar

StartChar: H
Encoding: 72 72 41
Width: 652
VWidth: 0
Flags: W
LayerCount: 2
Fore
SplineSet
455 774 m 257,0,-1
 607 774 l 257,1,-1
 607 -2 l 257,2,-1
 455 -2 l 257,3,-1
 455 333 l 257,4,-1
 207 333 l 257,5,-1
 207 -2 l 257,6,-1
 55 -2 l 257,7,-1
 55 774 l 257,8,-1
 207 774 l 257,9,-1
 207 485 l 257,10,-1
 455 485 l 257,11,-1
 455 774 l 257,0,-1
EndSplineSet
EndChar

StartChar: I
Encoding: 73 73 42
Width: 252
VWidth: 0
Flags: W
LayerCount: 2
Fore
SplineSet
55 774 m 257,0,-1
 207 774 l 257,1,-1
 207 -2 l 257,2,-1
 55 -2 l 257,3,-1
 55 774 l 257,0,-1
EndSplineSet
EndChar

StartChar: J
Encoding: 74 74 43
Width: 419
VWidth: 0
Flags: W
LayerCount: 2
Fore
SplineSet
55 6 m 257,0,-1
 55 174 l 257,1,2
 86 148 86 148 126 148 c 0,3,4
 175 148 175 148 207 185 c 1,5,-1
 207 761 l 257,6,-1
 374 761 l 257,7,-1
 371 184 l 257,8,9
 347 101 347 101 280 49 c 128,-1,10
 213 -3 213 -3 126 -3 c 0,11,12
 89 -3 89 -3 55 6 c 257,0,-1
EndSplineSet
EndChar

StartChar: K
Encoding: 75 75 44
Width: 703
VWidth: 0
Flags: W
LayerCount: 2
Fore
SplineSet
55 774 m 257,0,-1
 207 774 l 257,1,-1
 207 433 l 257,2,-1
 452 770 l 257,3,-1
 638 768 l 257,4,-1
 377 387 l 257,5,-1
 708 -3 l 257,6,-1
 516 -2 l 257,7,-1
 264 302 l 257,8,-1
 207 219 l 257,9,-1
 207 -2 l 257,10,-1
 55 -2 l 257,11,-1
 55 774 l 257,0,-1
EndSplineSet
EndChar

StartChar: L
Encoding: 76 76 45
Width: 718
VWidth: 0
Flags: W
LayerCount: 2
Fore
SplineSet
55 774 m 261,0,-1
 207 774 l 257,1,-1
 207 149 l 257,2,-1
 672 149 l 257,3,-1
 673 -3 l 257,4,-1
 56 -3 l 257,5,-1
 56 -2 l 257,6,-1
 55 -2 l 257,7,-1
 55 774 l 261,0,-1
EndSplineSet
EndChar

StartChar: M
Encoding: 77 77 46
Width: 1052
VWidth: 0
Flags: W
LayerCount: 2
Fore
SplineSet
55 768 m 257,0,-1
 207 768 l 257,1,-1
 531 146 l 257,2,-1
 855 768 l 257,3,-1
 1007 768 l 257,4,-1
 1007 -2 l 257,5,-1
 855 -2 l 257,6,-1
 855 476 l 257,7,-1
 607 0 l 257,8,-1
 455 0 l 257,9,-1
 207 476 l 257,10,-1
 207 -2 l 257,11,-1
 55 -2 l 257,12,-1
 55 768 l 257,0,-1
EndSplineSet
EndChar

StartChar: N
Encoding: 78 78 47
Width: 852
VWidth: 0
Flags: W
LayerCount: 2
Fore
SplineSet
55 774 m 257,0,-1
 207 774 l 257,1,-1
 655 251 l 257,2,-1
 655 774 l 257,3,-1
 807 774 l 257,4,-1
 807 -2 l 257,5,-1
 655 -2 l 257,6,-1
 207 523 l 257,7,-1
 207 -2 l 257,8,-1
 55 -2 l 257,9,-1
 55 774 l 257,0,-1
EndSplineSet
EndChar

StartChar: O
Encoding: 79 79 48
Width: 864
VWidth: 0
Flags: W
LayerCount: 2
Fore
SplineSet
819 380 m 260,0,1
 819 217 819 217 707 101.5 c 128,-1,2
 595 -14 595 -14 437 -14 c 128,-1,3
 279 -14 279 -14 167 101.5 c 128,-1,4
 55 217 55 217 55 380 c 128,-1,5
 55 543 55 543 167 658 c 128,-1,6
 279 773 279 773 437 773 c 128,-1,7
 595 773 595 773 707 658 c 128,-1,8
 819 543 819 543 819 380 c 260,0,1
666 378 m 260,9,10
 666 475 666 475 599 543.5 c 128,-1,11
 532 612 532 612 437 612 c 128,-1,12
 342 612 342 612 275 543.5 c 128,-1,13
 208 475 208 475 208 378 c 0,14,15
 208 280 208 280 275 211.5 c 128,-1,16
 342 143 342 143 437 143 c 128,-1,17
 532 143 532 143 599 211.5 c 128,-1,18
 666 280 666 280 666 378 c 260,9,10
EndSplineSet
EndChar

StartChar: P
Encoding: 80 80 49
Width: 534
VWidth: 0
Flags: W
LayerCount: 2
Fore
SplineSet
207 3 m 257,0,-1
 55 3 l 257,1,-1
 55 779 l 257,2,-1
 207 779 l 258,3,4
 215 780 215 780 231 780 c 0,5,6
 338 780 338 780 413.5 705 c 128,-1,7
 489 630 489 630 489 523 c 128,-1,8
 489 416 489 416 413.5 340.5 c 128,-1,9
 338 265 338 265 231 265 c 0,10,11
 215 265 215 265 207 266 c 1,12,-1
 207 3 l 257,0,-1
207 626 m 257,13,-1
 207 419 l 257,14,15
 219 416 219 416 231 416 c 256,16,17
 276 416 276 416 307 447 c 128,-1,18
 338 478 338 478 338 523 c 0,19,20
 338 567 338 567 307 598 c 128,-1,21
 276 629 276 629 231 629 c 0,22,23
 219 629 219 629 207 626 c 257,13,-1
EndSplineSet
EndChar

StartChar: Q
Encoding: 81 81 50
Width: 864
VWidth: 0
Flags: W
LayerCount: 2
Fore
SplineSet
666 378 m 256,0,1
 666 475 666 475 599 543.5 c 128,-1,2
 532 612 532 612 437 612 c 128,-1,3
 342 612 342 612 275 543.5 c 128,-1,4
 208 475 208 475 208 378 c 0,5,6
 208 280 208 280 275 211.5 c 128,-1,7
 342 143 342 143 437 143 c 128,-1,8
 532 143 532 143 599 211.5 c 128,-1,9
 666 280 666 280 666 378 c 256,0,1
819 380 m 256,10,11
 819 293 819 293 785 216.5 c 128,-1,12
 751 140 751 140 690 85 c 1,13,-1
 827 -52 l 257,14,-1
 689 -191 l 257,15,-1
 506 -8 l 257,16,17
 472 -14 472 -14 437 -14 c 0,18,19
 279 -14 279 -14 167 101.5 c 128,-1,20
 55 217 55 217 55 380 c 128,-1,21
 55 543 55 543 167 658 c 128,-1,22
 279 773 279 773 437 773 c 128,-1,23
 595 773 595 773 707 658 c 128,-1,24
 819 543 819 543 819 380 c 256,10,11
EndSplineSet
EndChar

StartChar: R
Encoding: 82 82 51
Width: 512
VWidth: 0
Flags: W
LayerCount: 2
Fore
SplineSet
207 626 m 257,0,-1
 207 419 l 257,1,2
 219 416 219 416 231 416 c 256,3,4
 276 416 276 416 307 447 c 128,-1,5
 338 478 338 478 338 523 c 0,6,7
 338 567 338 567 307 598 c 128,-1,8
 276 629 276 629 231 629 c 0,9,10
 219 629 219 629 207 626 c 257,0,-1
207 3 m 257,11,-1
 55 3 l 257,12,-1
 55 779 l 257,13,-1
 207 779 l 258,14,15
 215 780 215 780 231 780 c 0,16,17
 338 780 338 780 413.5 705 c 128,-1,18
 489 630 489 630 489 523 c 0,19,20
 489 440 489 440 441.5 373.5 c 128,-1,21
 394 307 394 307 318 280 c 1,22,-1
 517 -3 l 257,23,-1
 377 -3 l 257,24,-1
 212 266 l 258,25,26
 209 266 209 266 207 266 c 1,27,-1
 207 3 l 257,11,-1
EndSplineSet
EndChar

StartChar: S
Encoding: 83 83 52
Width: 512
VWidth: 0
Flags: W
LayerCount: 2
Fore
SplineSet
60 57 m 257,0,-1
 135 182 l 257,1,2
 147 172 147 172 157 167 c 0,3,4
 195 145 195 145 237 155.5 c 128,-1,5
 279 166 279 166 302 202 c 0,6,7
 324 241 324 241 299.5 274.5 c 128,-1,8
 275 308 275 308 232 315 c 1,9,10
 165 351 165 351 124.5 398 c 128,-1,11
 84 445 84 445 73.5 507.5 c 128,-1,12
 63 570 63 570 106 639 c 0,13,14
 158 726 158 726 261 751.5 c 128,-1,15
 364 777 364 777 458 727 c 0,16,17
 461 724 461 724 468.5 719.5 c 128,-1,18
 476 715 476 715 479 712 c 1,19,-1
 404 587 l 257,20,21
 392 597 392 597 382 602 c 0,22,23
 344 623 344 623 301.5 612.5 c 128,-1,24
 259 602 259 602 237 565 c 0,25,26
 212 524 212 524 232.5 475 c 128,-1,27
 253 426 253 426 301 418 c 1,28,29
 350 392 350 392 383.5 365.5 c 128,-1,30
 417 339 417 339 441.5 303.5 c 128,-1,31
 466 268 466 268 464.5 224 c 128,-1,32
 463 180 463 180 432 130 c 0,33,34
 380 42 380 42 277.5 16.5 c 128,-1,35
 175 -9 175 -9 81 42 c 0,36,37
 78 45 78 45 70.5 49.5 c 128,-1,38
 63 54 63 54 60 57 c 257,0,-1
EndSplineSet
EndChar

StartChar: T
Encoding: 84 84 53
Width: 676
VWidth: 0
Flags: W
LayerCount: 2
Fore
SplineSet
58 614 m 1,0,-1
 58 766 l 5,1,-1
 634 766 l 5,2,-1
 634 614 l 1,3,-1
 422 614 l 1,4,-1
 422 -2 l 1,5,-1
 270 -2 l 1,6,-1
 270 614 l 1,7,-1
 58 614 l 1,0,-1
EndSplineSet
EndChar

StartChar: U
Encoding: 85 85 54
Width: 669
VWidth: 0
Flags: W
LayerCount: 2
Fore
SplineSet
621 184 m 257,0,1
 605 126 605 126 560.5 84.5 c 128,-1,2
 516 43 516 43 460 23.5 c 128,-1,3
 404 4 404 4 340 3.5 c 128,-1,4
 276 3 276 3 219.5 22 c 128,-1,5
 163 41 163 41 119 83 c 128,-1,6
 75 125 75 125 58 184 c 1,7,-1
 55 761 l 257,8,-1
 222 761 l 257,9,-1
 222 185 l 257,10,11
 251 152 251 152 340 151.5 c 128,-1,12
 429 151 429 151 457 185 c 1,13,-1
 457 761 l 257,14,-1
 624 761 l 257,15,-1
 621 184 l 257,0,1
EndSplineSet
EndChar

StartChar: V
Encoding: 86 86 55
Width: 652
VWidth: 0
Flags: W
LayerCount: 2
Fore
SplineSet
55 769 m 257,0,-1
 207 769 l 257,1,-1
 331 292 l 257,2,-1
 455 769 l 257,3,-1
 607 769 l 257,4,-1
 407 0 l 257,5,-1
 255 0 l 257,6,-1
 55 769 l 257,0,-1
EndSplineSet
EndChar

StartChar: W
Encoding: 87 87 56
Width: 1000
VWidth: 0
Flags: W
LayerCount: 2
Fore
SplineSet
55 769 m 1,0,-1
 207 769 l 1,1,-1
 331 292 l 1,2,-1
 455 769 l 1,3,-1
 456 769 l 1,4,-1
 607 769 l 1,5,-1
 608 769 l 1,6,-1
 732 292 l 1,7,-1
 856 769 l 1,8,-1
 1008 769 l 1,9,-1
 808 0 l 1,10,-1
 656 0 l 1,11,-1
 531.5 478.7025 l 1,12,-1
 407 0 l 1,13,-1
 255 0 l 1,14,-1
 55 769 l 1,0,-1
EndSplineSet
EndChar

StartChar: X
Encoding: 88 88 57
Width: 724
VWidth: 0
Flags: W
LayerCount: 2
Fore
SplineSet
55 770 m 257,0,-1
 241 768 l 257,1,-1
 371 541 l 257,2,-1
 503 769 l 257,3,-1
 678 768 l 257,4,-1
 458 388 l 257,5,-1
 679 0 l 257,6,-1
 504 -2 l 257,7,-1
 368 233 l 257,8,-1
 234 2 l 257,9,-1
 56 -1 l 257,10,-1
 280 384 l 257,11,-1
 55 770 l 257,0,-1
EndSplineSet
EndChar

StartChar: Y
Encoding: 89 89 58
Width: 512
VWidth: 0
Flags: W
LayerCount: 2
Fore
SplineSet
198 451 m 257,0,-1
 -1 765 l 257,1,-1
 151 765 l 257,2,-1
 275 594 l 257,3,-1
 399 765 l 257,4,-1
 551 765 l 257,5,-1
 351 450 l 257,6,-1
 350 450 l 257,7,-1
 350 1 l 257,8,-1
 198 1 l 257,9,-1
 198 451 l 257,0,-1
EndSplineSet
EndChar

StartChar: Z
Encoding: 90 90 59
Width: 783
VWidth: 0
Flags: W
LayerCount: 2
Fore
SplineSet
55 10 m 257,0,-1
 55 162 l 257,1,-1
 485 610 l 257,2,-1
 55 610 l 257,3,-1
 55 762 l 257,4,-1
 738 762 l 257,5,-1
 738 610 l 257,6,-1
 306 162 l 257,7,-1
 738 162 l 257,8,-1
 738 10 l 257,9,-1
 55 10 l 257,0,-1
EndSplineSet
EndChar

StartChar: bracketleft
Encoding: 91 91 60
Width: 362
VWidth: 0
Flags: W
LayerCount: 2
Fore
SplineSet
56 -80 m 5,0,-1
 55 -80 l 1,1,-1
 55 -79 l 1,2,-1
 55 773 l 1,3,-1
 55 774 l 1,4,-1
 56 774 l 1,5,-1
 317 774 l 1,6,-1
 316 689 l 1,7,-1
 149 689 l 1,8,-1
 149 5 l 1,9,-1
 316 5 l 1,10,-1
 317 -80 l 1,11,-1
 56 -80 l 5,0,-1
EndSplineSet
EndChar

StartChar: backslash
Encoding: 92 92 61
Width: 691
VWidth: 0
Flags: W
LayerCount: 2
Fore
SplineSet
161 818 m 257,0,-1
 646 -22 l 257,1,-1
 540 -83 l 257,2,-1
 55 757 l 257,3,-1
 161 818 l 257,0,-1
EndSplineSet
EndChar

StartChar: bracketright
Encoding: 93 93 62
Width: 362
VWidth: 0
Flags: W
LayerCount: 2
Fore
SplineSet
316 -81 m 1,0,-1
 55 -81 l 1,1,-1
 56 4 l 1,2,-1
 223 4 l 1,3,-1
 223 689 l 1,4,-1
 56 689 l 1,5,-1
 55 774 l 1,6,-1
 316 774 l 1,7,-1
 317 774 l 1,8,-1
 317 773 l 1,9,-1
 317 -80 l 1,10,-1
 317 -81 l 1,11,-1
 316 -81 l 1,0,-1
EndSplineSet
EndChar

StartChar: asciicircum
Encoding: 94 94 63
Width: 644
VWidth: 0
Flags: W
LayerCount: 2
Fore
SplineSet
126 283 m 1,0,-1
 269 617 l 1,1,-1
 270 617 l 1,2,-1
 421 617 l 1,3,-1
 422 617 l 1,4,-1
 528 283 l 1,5,-1
 376 283 l 1,6,-1
 334 497 l 1,7,-1
 278 283 l 1,8,-1
 126 283 l 1,0,-1
EndSplineSet
EndChar

StartChar: underscore
Encoding: 95 95 64
Width: 544
VWidth: 0
Flags: W
LayerCount: 2
Fore
SplineSet
549 196 m 261,0,-1
 549 44 l 257,1,-1
 5 44 l 257,2,-1
 5 196 l 257,3,-1
 549 196 l 261,0,-1
EndSplineSet
EndChar

StartChar: grave
Encoding: 96 96 65
Width: 252
VWidth: 0
Flags: W
LayerCount: 2
Fore
SplineSet
168 516 m 261,0,-1
 -14 698 l 257,1,-1
 94 805 l 257,2,-1
 276 623 l 257,3,-1
 168 516 l 261,0,-1
EndSplineSet
EndChar

StartChar: a
Encoding: 97 97 66
Width: 512
VWidth: 0
Flags: W
LayerCount: 2
Fore
SplineSet
337 1 m 257,0,-1
 337 9 l 257,1,2
 329 8 329 8 313 8 c 0,3,4
 206 8 206 8 130.5 83.5 c 128,-1,5
 55 159 55 159 55 266 c 0,6,7
 55 372 55 372 130 443.5 c 128,-1,8
 205 515 205 515 313 515 c 0,9,10
 329 515 329 515 337 514 c 2,11,-1
 489 514 l 257,12,-1
 489 1 l 257,13,-1
 337 1 l 257,0,-1
337 369 m 257,14,15
 325 372 325 372 313 372 c 256,16,17
 268 372 268 372 237 341 c 128,-1,18
 206 310 206 310 206 266 c 0,19,20
 206 221 206 221 237 190 c 128,-1,21
 268 159 268 159 313 159 c 0,22,23
 325 159 325 159 337 162 c 257,24,-1
 337 369 l 257,14,15
EndSplineSet
EndChar

StartChar: b
Encoding: 98 98 67
Width: 512
VWidth: 0
Flags: W
LayerCount: 2
Fore
SplineSet
207 780 m 257,0,-1
 207 517 l 257,1,2
 215 518 215 518 231 518 c 0,3,4
 338 518 338 518 413.5 442.5 c 128,-1,5
 489 367 489 367 489 260 c 128,-1,6
 489 153 489 153 413.5 78 c 128,-1,7
 338 3 338 3 231 3 c 0,8,9
 215 3 215 3 207 4 c 2,10,-1
 55 4 l 257,11,-1
 55 780 l 257,12,-1
 207 780 l 257,0,-1
207 157 m 257,13,14
 219 154 219 154 231 154 c 256,15,16
 276 154 276 154 307 185 c 128,-1,17
 338 216 338 216 338 260 c 0,18,19
 338 305 338 305 307 336 c 128,-1,20
 276 367 276 367 231 367 c 0,21,22
 219 367 219 367 207 364 c 257,23,-1
 207 157 l 257,13,14
EndSplineSet
EndChar

StartChar: c
Encoding: 99 99 68
Width: 384
VWidth: 0
Flags: W
LayerCount: 2
Fore
SplineSet
339 4 m 261,0,1
 326 3 326 3 313 3 c 0,2,3
 206 3 206 3 130.5 78 c 128,-1,4
 55 153 55 153 55 260 c 128,-1,5
 55 367 55 367 130.5 442.5 c 128,-1,6
 206 518 206 518 313 518 c 0,7,8
 326 518 326 518 339 517 c 1,9,-1
 339 364 l 257,10,11
 326 367 326 367 313 367 c 0,12,13
 268 367 268 367 237 336 c 128,-1,14
 206 305 206 305 206 260 c 0,15,16
 206 216 206 216 237 185 c 128,-1,17
 268 154 268 154 313 154 c 0,18,19
 326 154 326 154 339 157 c 1,20,-1
 339 4 l 261,0,1
EndSplineSet
EndChar

StartChar: d
Encoding: 100 100 69
Width: 512
VWidth: 0
Flags: W
LayerCount: 2
Fore
SplineSet
337 780 m 257,0,-1
 489 780 l 257,1,-1
 489 4 l 257,2,-1
 337 4 l 258,3,4
 325 3 325 3 313 3 c 0,5,6
 206 3 206 3 130.5 78 c 128,-1,7
 55 153 55 153 55 260 c 128,-1,8
 55 367 55 367 130.5 442.5 c 128,-1,9
 206 518 206 518 313 518 c 0,10,11
 325 518 325 518 337 517 c 1,12,-1
 337 780 l 257,0,-1
337 157 m 257,13,-1
 337 364 l 257,14,15
 325 367 325 367 313 367 c 0,16,17
 268 367 268 367 237 336 c 128,-1,18
 206 305 206 305 206 260 c 0,19,20
 206 216 206 216 237 185 c 128,-1,21
 268 154 268 154 313 154 c 0,22,23
 325 154 325 154 337 157 c 257,13,-1
EndSplineSet
EndChar

StartChar: e
Encoding: 101 101 70
Width: 617
VWidth: 0
Flags: W
LayerCount: 2
Fore
SplineSet
571 260 m 256,0,1
 571 250 571 250 571.5 232.5 c 128,-1,2
 572 215 572 215 572 208 c 1,3,-1
 221 205 l 257,4,5
 235 181 235 181 259.5 167.5 c 128,-1,6
 284 154 284 154 313 154 c 0,7,8
 347 154 347 154 450.5 156.5 c 128,-1,9
 554 159 554 159 562 162 c 1,10,-1
 562 6 l 257,11,12
 543 3 543 3 313 3 c 0,13,14
 206 3 206 3 130.5 78 c 128,-1,15
 55 153 55 153 55 260 c 128,-1,16
 55 367 55 367 130.5 442.5 c 128,-1,17
 206 518 206 518 313 518 c 128,-1,18
 420 518 420 518 495.5 442.5 c 128,-1,19
 571 367 571 367 571 260 c 256,0,1
235 334 m 257,20,-1
 392 332 l 257,21,22
 360 367 360 367 313 367 c 0,23,24
 266 367 266 367 235 334 c 257,20,-1
EndSplineSet
EndChar

StartChar: f
Encoding: 102 102 71
Width: 512
VWidth: 0
Flags: W
LayerCount: 2
Fore
SplineSet
469 752 m 1,0,-1
 469 584 l 1,1,2
 438 610 438 610 398 610 c 0,3,4
 349 610 349 610 317 573 c 1,5,-1
 317 511 l 1,6,-1
 414 511 l 1,7,-1
 414 359 l 1,8,-1
 317 359 l 1,9,-1
 317 -3 l 1,10,-1
 150 -3 l 1,11,-1
 151.882149047 359 l 1,12,-1
 55 359 l 1,13,-1
 55 511 l 1,14,-1
 152.672443674 511 l 1,15,-1
 153 574 l 1,16,17
 177 657 177 657 244 709 c 128,-1,18
 311 761 311 761 398 761 c 0,19,20
 435 761 435 761 469 752 c 1,0,-1
EndSplineSet
EndChar

StartChar: g
Encoding: 103 103 72
Width: 620
VWidth: 0
Flags: W
LayerCount: 2
Fore
SplineSet
315 367 m 256,0,1
 302 367 302 367 291 364 c 1,2,-1
 291 365 l 257,3,4
 254 358 254 358 230 328.5 c 128,-1,5
 206 299 206 299 206 260 c 0,6,7
 206 222 206 222 230 193 c 128,-1,8
 254 164 254 164 291 156 c 1,9,-1
 291 157 l 257,10,11
 302 154 302 154 315 154 c 0,12,13
 327 154 327 154 339 157 c 1,14,-1
 339 156 l 257,15,16
 376 163 376 163 400 192.5 c 128,-1,17
 424 222 424 222 424 260 c 0,18,19
 424 299 424 299 400 328 c 128,-1,20
 376 357 376 357 339 365 c 1,21,-1
 339 364 l 257,22,23
 327 367 327 367 315 367 c 256,0,1
314 3 m 256,24,25
 313 3 l 256,26,27
 311 3 311 3 309 3 c 256,28,29
 308 3 308 3 305 3 c 0,30,31
 268 3 268 3 264 4 c 0,32,33
 166 11 166 11 110.5 82.5 c 128,-1,34
 55 154 55 154 55 260 c 0,35,36
 55 362 55 362 124.5 436.5 c 128,-1,37
 194 511 194 511 295 517 c 0,38,39
 301 517 301 517 309 518 c 0,40,41
 311 518 311 518 313 518 c 256,42,43
 314 518 l 256,44,45
 315 518 315 518 317 518 c 0,46,47
 424 518 424 518 499.5 443 c 128,-1,48
 575 368 575 368 575 261 c 0,49,-1
 575 261 l 258,50,51
 575 260 l 256,52,53
 575 257 575 257 575 253 c 258,54,-1
 572 -18 l 257,55,56
 548 -101 548 -101 482.5 -153 c 128,-1,57
 417 -205 417 -205 330 -205 c 0,58,59
 159 -205 159 -205 125 -196 c 1,60,-1
 125 -28 l 257,61,62
 137 -38 137 -38 216 -46 c 128,-1,63
 295 -54 295 -54 330 -54 c 0,64,65
 356 -54 356 -54 382.5 -44 c 128,-1,66
 409 -34 409 -34 424 -17 c 1,67,-1
 424 26 l 257,68,69
 373 3 373 3 317 3 c 0,70,71
 315 3 315 3 314 3 c 256,24,25
EndSplineSet
EndChar

StartChar: h
Encoding: 104 104 73
Width: 597
VWidth: 0
Flags: W
LayerCount: 2
Fore
SplineSet
55 768 m 257,0,-1
 224 768 l 257,1,-1
 224 512 l 257,2,3
 263 524 263 524 304 524 c 0,4,5
 391 524 391 524 458 472 c 128,-1,6
 525 420 525 420 549 337 c 1,7,-1
 552 6 l 257,8,-1
 385 6 l 257,9,-1
 385 336 l 257,10,11
 353 373 353 373 304 373 c 0,12,13
 256 373 256 373 224 338 c 1,14,-1
 224 6 l 257,15,-1
 55 6 l 257,16,-1
 55 768 l 257,0,-1
EndSplineSet
EndChar

StartChar: i
Encoding: 105 105 74
Width: 252
VWidth: 0
Flags: W
LayerCount: 2
Fore
SplineSet
55 512 m 257,0,-1
 207 512 l 257,1,-1
 207 -2 l 257,2,-1
 55 -2 l 257,3,-1
 55 512 l 257,0,-1
55 772 m 257,4,-1
 207 772 l 257,5,-1
 207 630 l 257,6,-1
 55 630 l 257,7,-1
 55 772 l 257,4,-1
EndSplineSet
EndChar

StartChar: j
Encoding: 106 106 75
Width: 419
VWidth: 0
Flags: W
LayerCount: 2
Fore
SplineSet
55 -195 m 257,0,-1
 55 -27 l 257,1,2
 86 -53 86 -53 126 -53 c 0,3,4
 175 -53 175 -53 207 -16 c 1,5,-1
 207 517 l 257,6,-1
 374 517 l 257,7,-1
 371 -17 l 257,8,9
 347 -100 347 -100 280 -152 c 128,-1,10
 213 -204 213 -204 126 -204 c 0,11,12
 89 -204 89 -204 55 -195 c 257,0,-1
219 772 m 257,13,-1
 371 772 l 257,14,-1
 371 630 l 257,15,-1
 219 630 l 257,16,-1
 219 772 l 257,13,-1
EndSplineSet
EndChar

StartChar: k
Encoding: 107 107 76
Width: 753
VWidth: 0
Flags: W
LayerCount: 2
Fore
SplineSet
66 774 m 257,0,-1
 207 774 l 257,1,-1
 207 317 l 257,2,-1
 452 529 l 257,3,-1
 645 527 l 257,4,-1
 384 284 l 257,5,-1
 654 -3 l 257,6,-1
 468 -2 l 257,7,-1
 264 226 l 257,8,-1
 207 154 l 257,9,-1
 207 -2 l 257,10,-1
 66 -2 l 257,11,-1
 66 774 l 257,0,-1
EndSplineSet
EndChar

StartChar: l
Encoding: 108 108 77
Width: 419
VWidth: 0
Flags: W
LayerCount: 2
Fore
SplineSet
369 6 m 257,0,1
 335 -3 335 -3 298 -3 c 0,2,3
 211 -3 211 -3 144 49 c 128,-1,4
 77 101 77 101 53 184 c 257,5,-1
 50 761 l 257,6,-1
 217 761 l 257,7,-1
 217 185 l 1,8,9
 249 148 249 148 298 148 c 0,10,11
 338 148 338 148 369 174 c 257,12,-1
 369 6 l 257,0,1
EndSplineSet
EndChar

StartChar: m
Encoding: 109 109 78
Width: 924
VWidth: 0
Flags: W
LayerCount: 2
Fore
SplineSet
55 522 m 257,0,-1
 224 522 l 257,1,-1
 224 512 l 257,2,3
 263 524 263 524 304 524 c 0,4,5
 391 524 391 524 458 472 c 128,-1,6
 525 420 525 420 549 337 c 1,7,-1
 552 6 l 257,8,-1
 385 6 l 257,9,-1
 385 336 l 257,10,11
 353 373 353 373 304 373 c 0,12,13
 256 373 256 373 224 338 c 1,14,-1
 224 6 l 257,15,-1
 55 6 l 257,16,-1
 55 522 l 257,0,-1
386 429 m 257,17,-1
 551 512 l 257,18,19
 590 524 590 524 631 524 c 0,20,21
 718 524 718 524 785 472 c 128,-1,22
 852 420 852 420 876 337 c 1,23,-1
 879 6 l 257,24,-1
 712 6 l 257,25,-1
 712 336 l 257,26,27
 680 373 680 373 631 373 c 0,28,29
 583 373 583 373 551 338 c 1,30,-1
 551 6 l 257,31,-1
 382 6 l 257,32,-1
 386 429 l 257,17,-1
EndSplineSet
EndChar

StartChar: n
Encoding: 110 110 79
Width: 597
VWidth: 0
Flags: W
LayerCount: 2
Fore
SplineSet
55 522 m 257,0,-1
 224 522 l 257,1,-1
 224 512 l 257,2,3
 263 524 263 524 304 524 c 0,4,5
 391 524 391 524 458 472 c 128,-1,6
 525 420 525 420 549 337 c 1,7,-1
 552 6 l 257,8,-1
 385 6 l 257,9,-1
 385 336 l 257,10,11
 353 373 353 373 304 373 c 0,12,13
 256 373 256 373 224 338 c 1,14,-1
 224 6 l 257,15,-1
 55 6 l 257,16,-1
 55 522 l 257,0,-1
EndSplineSet
EndChar

StartChar: o
Encoding: 111 111 80
Width: 616
VWidth: 0
Flags: W
LayerCount: 2
Fore
SplineSet
314 3 m 260,0,1
 313 3 l 256,2,3
 311 3 311 3 309 3 c 256,4,5
 301 3 301 3 295 4 c 0,6,7
 194 11 194 11 124.5 84.5 c 128,-1,8
 55 158 55 158 55 260 c 0,9,10
 55 362 55 362 124.5 436.5 c 128,-1,11
 194 511 194 511 295 517 c 0,12,13
 301 517 301 517 309 518 c 0,14,15
 311 518 311 518 313 518 c 256,16,17
 314 518 l 256,18,19
 315 518 315 518 317 518 c 0,20,21
 424 518 424 518 499.5 442.5 c 128,-1,22
 575 367 575 367 575 260 c 128,-1,23
 575 153 575 153 499.5 78 c 128,-1,24
 424 3 424 3 317 3 c 0,25,26
 315 3 315 3 314 3 c 260,0,1
315 367 m 260,27,28
 302 367 302 367 291 364 c 1,29,-1
 291 365 l 257,30,31
 254 358 254 358 230 328.5 c 128,-1,32
 206 299 206 299 206 260 c 0,33,34
 206 222 206 222 230 193 c 128,-1,35
 254 164 254 164 291 156 c 1,36,-1
 291 157 l 257,37,38
 302 154 302 154 315 154 c 0,39,40
 327 154 327 154 339 157 c 1,41,-1
 339 156 l 257,42,43
 376 163 376 163 400 192.5 c 128,-1,44
 424 222 424 222 424 260 c 0,45,46
 424 299 424 299 400 328 c 128,-1,47
 376 357 376 357 339 365 c 1,48,-1
 339 364 l 257,49,50
 327 367 327 367 315 367 c 260,27,28
EndSplineSet
EndChar

StartChar: p
Encoding: 112 112 81
Width: 512
VWidth: 0
Flags: W
LayerCount: 2
Fore
SplineSet
207 -202 m 257,0,-1
 55 -202 l 257,1,-1
 55 509 l 257,2,-1
 207 509 l 258,3,4
 215 510 215 510 231 510 c 0,5,6
 338 510 338 510 413.5 435 c 128,-1,7
 489 360 489 360 489 253 c 128,-1,8
 489 146 489 146 413.5 70.5 c 128,-1,9
 338 -5 338 -5 231 -5 c 0,10,11
 215 -5 215 -5 207 -4 c 1,12,-1
 207 -202 l 257,0,-1
207 356 m 257,13,-1
 207 149 l 257,14,15
 219 146 219 146 231 146 c 256,16,17
 276 146 276 146 307 177 c 128,-1,18
 338 208 338 208 338 253 c 0,19,20
 338 297 338 297 307 328 c 128,-1,21
 276 359 276 359 231 359 c 0,22,23
 219 359 219 359 207 356 c 257,13,-1
EndSplineSet
EndChar

StartChar: q
Encoding: 113 113 82
Width: 512
VWidth: 0
Flags: W
LayerCount: 2
Fore
SplineSet
337 -202 m 257,0,-1
 337 -4 l 257,1,2
 329 -5 329 -5 313 -5 c 0,3,4
 206 -5 206 -5 130.5 70.5 c 128,-1,5
 55 146 55 146 55 253 c 128,-1,6
 55 360 55 360 130.5 435 c 128,-1,7
 206 510 206 510 313 510 c 0,8,9
 329 510 329 510 337 509 c 2,10,-1
 489 509 l 257,11,-1
 489 -202 l 257,12,-1
 337 -202 l 257,0,-1
337 356 m 257,13,14
 325 359 325 359 313 359 c 256,15,16
 268 359 268 359 237 328 c 128,-1,17
 206 297 206 297 206 253 c 0,18,19
 206 208 206 208 237 177 c 128,-1,20
 268 146 268 146 313 146 c 0,21,22
 325 146 325 146 337 149 c 257,23,-1
 337 356 l 257,13,14
EndSplineSet
EndChar

StartChar: r
Encoding: 114 114 83
Width: 587
VWidth: 0
Flags: W
LayerCount: 2
Fore
SplineSet
55 522 m 257,0,-1
 224 522 l 257,1,-1
 224 512 l 257,2,3
 263 524 263 524 304 524 c 0,4,5
 384 524 384 524 448.5 473 c 128,-1,6
 513 422 513 422 542 345 c 1,7,-1
 377 345 l 257,8,-1
 377 344 l 257,9,10
 346 373 346 373 304 373 c 0,11,12
 256 373 256 373 224 338 c 1,13,-1
 224 6 l 257,14,-1
 55 6 l 257,15,-1
 55 522 l 257,0,-1
EndSplineSet
EndChar

StartChar: s
Encoding: 115 115 84
Width: 508
VWidth: 0
Flags: W
LayerCount: 2
Fore
SplineSet
74 47 m 257,0,-1
 141 159 l 257,1,2
 148 152 148 152 163 147 c 0,3,4
 203 130 203 130 234.5 134 c 128,-1,5
 266 138 266 138 286 162 c 0,6,7
 309 189 309 189 264 201 c 0,8,9
 252 204 252 204 210 211 c 257,10,11
 144 237 144 237 104 271.5 c 128,-1,12
 64 306 64 306 56 348 c 128,-1,13
 48 390 48 390 86 434 c 0,14,15
 133 491 133 491 233 502.5 c 128,-1,16
 333 514 333 514 429 473 c 0,17,18
 447 465 447 465 451 462 c 1,19,-1
 384 332 l 257,20,21
 370 341 370 341 362 344 c 0,22,23
 322 360 322 360 301.5 356 c 128,-1,24
 281 352 281 352 261 328 c 0,25,26
 237 302 237 302 241 292.5 c 128,-1,27
 245 283 245 283 292 275 c 1,28,29
 332 258 332 258 360.5 243.5 c 128,-1,30
 389 229 389 229 415.5 209 c 128,-1,31
 442 189 442 189 453.5 169.5 c 128,-1,32
 465 150 465 150 462.5 125.5 c 128,-1,33
 460 101 460 101 438 75 c 0,34,35
 391 18 391 18 291 5.5 c 128,-1,36
 191 -7 191 -7 96 34 c 0,37,38
 88 36 88 36 74 47 c 257,0,-1
EndSplineSet
EndChar

StartChar: t
Encoding: 116 116 85
Width: 514
VWidth: 0
Flags: W
LayerCount: 2
Fore
SplineSet
469 6 m 257,0,1
 435 -3 435 -3 398 -3 c 0,2,3
 311 -3 311 -3 244 49 c 128,-1,4
 177 101 177 101 153 184 c 1,5,-1
 152 364 l 257,6,-1
 55 364 l 257,7,-1
 55 516 l 257,8,-1
 151 516 l 257,9,-1
 150 761 l 257,10,-1
 317 761 l 257,11,-1
 317 516 l 257,12,-1
 414 516 l 257,13,-1
 414 364 l 257,14,-1
 317 364 l 257,15,-1
 317 185 l 257,16,17
 349 148 349 148 398 148 c 0,18,19
 438 148 438 148 469 174 c 1,20,-1
 469 6 l 257,0,1
EndSplineSet
EndChar

StartChar: u
Encoding: 117 117 86
Width: 598
VWidth: 0
Flags: W
LayerCount: 2
Fore
SplineSet
553 8 m 257,0,-1
 384 8 l 257,1,-1
 384 18 l 257,2,3
 345 6 345 6 304 6 c 0,4,5
 217 6 217 6 150 58 c 128,-1,6
 83 110 83 110 59 193 c 1,7,-1
 56 524 l 257,8,-1
 223 524 l 257,9,-1
 223 194 l 257,10,11
 255 157 255 157 304 157 c 0,12,13
 352 157 352 157 384 192 c 1,14,-1
 384 524 l 257,15,-1
 553 524 l 257,16,-1
 553 8 l 257,0,-1
EndSplineSet
EndChar

StartChar: v
Encoding: 118 118 87
Width: 652
VWidth: 0
Flags: W
LayerCount: 2
Fore
SplineSet
55 511 m 257,0,-1
 207 511 l 257,1,-1
 331 144 l 257,2,-1
 455 511 l 257,3,-1
 607 511 l 257,4,-1
 407 0 l 257,5,-1
 255 0 l 257,6,-1
 55 511 l 257,0,-1
EndSplineSet
EndChar

StartChar: w
Encoding: 119 119 88
Width: 1044
VWidth: 0
Flags: W
LayerCount: 2
Fore
SplineSet
451 511 m 257,0,-1
 603 511 l 257,1,-1
 723 144 l 257,2,-1
 847 511 l 257,3,-1
 999 511 l 257,4,-1
 799 0 l 257,5,-1
 651 0 l 257,6,-1
 527 317 l 257,7,-1
 403 0 l 257,8,-1
 255 0 l 257,9,-1
 55 511 l 257,10,-1
 203 511 l 257,11,-1
 327 144 l 257,12,-1
 451 511 l 257,0,-1
EndSplineSet
EndChar

StartChar: x
Encoding: 120 120 89
Width: 724
VWidth: 0
Flags: W
LayerCount: 2
Fore
SplineSet
55 513 m 257,0,-1
 241 511 l 257,1,-1
 370 360 l 257,2,-1
 503 512 l 257,3,-1
 678 511 l 257,4,-1
 458 258 l 257,5,-1
 679 0 l 257,6,-1
 504 -2 l 257,7,-1
 367 155 l 257,8,-1
 234 2 l 257,9,-1
 56 -1 l 257,10,-1
 280 256 l 257,11,-1
 55 513 l 257,0,-1
EndSplineSet
EndChar

StartChar: y
Encoding: 121 121 90
Width: 652
VWidth: 0
Flags: W
LayerCount: 2
Fore
SplineSet
55 511 m 257,0,-1
 226 511 l 257,1,-1
 350 144 l 257,2,-1
 455 511 l 257,3,-1
 640 514 l 257,4,-1
 361 -200 l 257,5,-1
 213 -204 l 257,6,-1
 282 0 l 257,7,-1
 55 511 l 257,0,-1
EndSplineSet
EndChar

StartChar: z
Encoding: 122 122 91
Width: 512
VWidth: 0
Flags: W
LayerCount: 2
Fore
SplineSet
55 10 m 257,0,-1
 55 162 l 257,1,-1
 298 366 l 257,2,-1
 55 366 l 257,3,-1
 55 518 l 257,4,-1
 508 518 l 257,5,-1
 508 366 l 257,6,-1
 306 162 l 257,7,-1
 508 162 l 257,8,-1
 508 10 l 257,9,-1
 55 10 l 257,0,-1
EndSplineSet
EndChar

StartChar: braceleft
Encoding: 123 123 92
Width: 419
VWidth: 0
Flags: W
LayerCount: 2
Fore
SplineSet
456 -85 m 1,0,1
 441 -92 441 -92 419 -92 c 0,2,3
 375 -92 375 -92 340.5 -50 c 128,-1,4
 306 -8 306 -8 294 58 c 1,5,-1
 293 228 l 1,6,-1
 184 358 l 1,7,-1
 293 485 l 1,8,-1
 294 655 l 1,9,10
 306 721 306 721 340.5 763 c 128,-1,11
 375 805 375 805 419 805 c 0,12,13
 441 805 441 805 456 798 c 1,14,-1
 456 663 l 1,15,16
 440 684 440 684 419 684 c 0,17,18
 395 684 395 684 378 654 c 1,19,-1
 379 470 l 1,20,-1
 297 369 l 1,21,-1
 378 228 l 1,22,-1
 378 58 l 1,23,24
 394 29 394 29 419 29 c 0,25,26
 440 29 440 29 456 50 c 1,27,-1
 456 -85 l 1,0,1
EndSplineSet
EndChar

StartChar: bar
Encoding: 124 124 93
Width: 252
VWidth: 0
Flags: W
LayerCount: 2
Fore
SplineSet
70 871 m 257,0,-1
 192 871 l 257,1,-1
 192 -99 l 257,2,-1
 70 -99 l 257,3,-1
 70 871 l 257,0,-1
EndSplineSet
EndChar

StartChar: braceright
Encoding: 125 125 94
Width: 419
VWidth: 0
Flags: W
LayerCount: 2
Fore
SplineSet
184 -85 m 1,0,-1
 184 50 l 1,1,2
 200 29 200 29 221 29 c 0,3,4
 246 29 246 29 262 58 c 1,5,-1
 262 228 l 1,6,-1
 343 369 l 1,7,-1
 261 470 l 1,8,-1
 262 654 l 1,9,10
 245 684 245 684 221 684 c 0,11,12
 200 684 200 684 184 663 c 1,13,-1
 184 798 l 1,14,15
 199 805 199 805 221 805 c 0,16,17
 265 805 265 805 299.5 763 c 128,-1,18
 334 721 334 721 346 655 c 1,19,-1
 347 485 l 1,20,-1
 456 358 l 1,21,-1
 347 228 l 1,22,-1
 346 58 l 1,23,24
 334 -8 334 -8 299.5 -50 c 128,-1,25
 265 -92 265 -92 221 -92 c 0,26,27
 199 -92 199 -92 184 -85 c 1,0,-1
EndSplineSet
EndChar

StartChar: asciitilde
Encoding: 126 126 95
Width: 644
VWidth: 0
Flags: W
LayerCount: 2
Fore
SplineSet
554 577 m 257,0,-1
 554 425 l 258,1,2
 553 421 553 421 537.5 403 c 128,-1,3
 522 385 522 385 490 364.5 c 128,-1,4
 458 344 458 344 426 344 c 2,5,-1
 326 344 l 2,6,7
 294 344 294 344 249.5 372 c 128,-1,8
 205 400 205 400 173 400 c 0,9,10
 150 400 150 400 120.5 386 c 128,-1,11
 91 372 91 372 73 358 c 2,12,-1
 55 344 l 1,13,-1
 55 496 l 257,14,15
 119 552 119 552 169 552 c 0,16,17
 202 552 202 552 249 524.5 c 128,-1,18
 296 497 296 497 329 497 c 0,19,20
 374 497 374 497 418 497 c 0,21,22
 449 497 449 497 483 517 c 128,-1,23
 517 537 517 537 535 557 c 2,24,-1
 554 577 l 257,0,-1
EndSplineSet
EndChar
